<mxfile host="app.diagrams.net" modified="2023-10-16T02:06:37.866Z" agent="Mozilla/5.0 (Windows NT 10.0; Win64; x64) AppleWebKit/537.36 (KHTML, like Gecko) Chrome/114.0.0.0 Safari/537.36 Edg/114.0.1823.41" etag="wmBFeOVaa-sgegvscxUK" version="22.0.4" type="github">
  <diagram id="C5RBs43oDa-KdzZeNtuy" name="Page-1">
    <mxGraphModel dx="899" dy="608" grid="1" gridSize="10" guides="1" tooltips="1" connect="1" arrows="1" fold="1" page="1" pageScale="1" pageWidth="827" pageHeight="1169" math="0" shadow="0">
      <root>
        <mxCell id="WIyWlLk6GJQsqaUBKTNV-0" />
        <mxCell id="WIyWlLk6GJQsqaUBKTNV-1" parent="WIyWlLk6GJQsqaUBKTNV-0" />
        <mxCell id="D0T-OWsima516PI2QDGk-0" value="" style="edgeStyle=orthogonalEdgeStyle;rounded=0;orthogonalLoop=1;jettySize=auto;html=1;" edge="1" parent="WIyWlLk6GJQsqaUBKTNV-1" source="D0T-OWsima516PI2QDGk-1" target="D0T-OWsima516PI2QDGk-3">
          <mxGeometry relative="1" as="geometry" />
        </mxCell>
        <mxCell id="D0T-OWsima516PI2QDGk-1" value="mulai" style="rounded=1;whiteSpace=wrap;html=1;" vertex="1" parent="WIyWlLk6GJQsqaUBKTNV-1">
          <mxGeometry x="477.5" y="490" width="120" height="60" as="geometry" />
        </mxCell>
        <mxCell id="D0T-OWsima516PI2QDGk-2" value="" style="edgeStyle=orthogonalEdgeStyle;rounded=0;orthogonalLoop=1;jettySize=auto;html=1;" edge="1" parent="WIyWlLk6GJQsqaUBKTNV-1" source="D0T-OWsima516PI2QDGk-3" target="D0T-OWsima516PI2QDGk-5">
          <mxGeometry relative="1" as="geometry" />
        </mxCell>
        <mxCell id="D0T-OWsima516PI2QDGk-3" value="menetapkan bilangan ganjil dan genap" style="shape=parallelogram;perimeter=parallelogramPerimeter;whiteSpace=wrap;html=1;fixedSize=1;" vertex="1" parent="WIyWlLk6GJQsqaUBKTNV-1">
          <mxGeometry x="470" y="600" width="135" height="70" as="geometry" />
        </mxCell>
        <mxCell id="D0T-OWsima516PI2QDGk-4" value="" style="edgeStyle=orthogonalEdgeStyle;rounded=0;orthogonalLoop=1;jettySize=auto;html=1;" edge="1" parent="WIyWlLk6GJQsqaUBKTNV-1" source="D0T-OWsima516PI2QDGk-5" target="D0T-OWsima516PI2QDGk-8">
          <mxGeometry relative="1" as="geometry" />
        </mxCell>
        <mxCell id="D0T-OWsima516PI2QDGk-5" value="dibagi 2" style="rounded=0;whiteSpace=wrap;html=1;" vertex="1" parent="WIyWlLk6GJQsqaUBKTNV-1">
          <mxGeometry x="477.5" y="730" width="120" height="60" as="geometry" />
        </mxCell>
        <mxCell id="D0T-OWsima516PI2QDGk-6" value="bisa" style="edgeStyle=orthogonalEdgeStyle;rounded=0;orthogonalLoop=1;jettySize=auto;html=1;" edge="1" parent="WIyWlLk6GJQsqaUBKTNV-1" source="D0T-OWsima516PI2QDGk-8" target="D0T-OWsima516PI2QDGk-13">
          <mxGeometry relative="1" as="geometry" />
        </mxCell>
        <mxCell id="D0T-OWsima516PI2QDGk-7" value="tidak bisa" style="edgeStyle=orthogonalEdgeStyle;rounded=0;orthogonalLoop=1;jettySize=auto;html=1;" edge="1" parent="WIyWlLk6GJQsqaUBKTNV-1" source="D0T-OWsima516PI2QDGk-8" target="D0T-OWsima516PI2QDGk-10">
          <mxGeometry relative="1" as="geometry" />
        </mxCell>
        <mxCell id="D0T-OWsima516PI2QDGk-8" value="bilangan di bagi dengan 2" style="rhombus;whiteSpace=wrap;html=1;" vertex="1" parent="WIyWlLk6GJQsqaUBKTNV-1">
          <mxGeometry x="497.5" y="830" width="80" height="80" as="geometry" />
        </mxCell>
        <mxCell id="D0T-OWsima516PI2QDGk-9" value="" style="edgeStyle=orthogonalEdgeStyle;rounded=0;orthogonalLoop=1;jettySize=auto;html=1;" edge="1" parent="WIyWlLk6GJQsqaUBKTNV-1" source="D0T-OWsima516PI2QDGk-10" target="D0T-OWsima516PI2QDGk-11">
          <mxGeometry relative="1" as="geometry" />
        </mxCell>
        <mxCell id="D0T-OWsima516PI2QDGk-10" value="ganjil" style="shape=parallelogram;perimeter=parallelogramPerimeter;whiteSpace=wrap;html=1;fixedSize=1;" vertex="1" parent="WIyWlLk6GJQsqaUBKTNV-1">
          <mxGeometry x="477.5" y="960" width="120" height="60" as="geometry" />
        </mxCell>
        <mxCell id="D0T-OWsima516PI2QDGk-11" value="finish" style="rounded=1;whiteSpace=wrap;html=1;" vertex="1" parent="WIyWlLk6GJQsqaUBKTNV-1">
          <mxGeometry x="477.5" y="1070" width="120" height="60" as="geometry" />
        </mxCell>
        <mxCell id="D0T-OWsima516PI2QDGk-12" style="edgeStyle=orthogonalEdgeStyle;rounded=0;orthogonalLoop=1;jettySize=auto;html=1;entryX=1;entryY=0.5;entryDx=0;entryDy=0;" edge="1" parent="WIyWlLk6GJQsqaUBKTNV-1" source="D0T-OWsima516PI2QDGk-13" target="D0T-OWsima516PI2QDGk-11">
          <mxGeometry relative="1" as="geometry">
            <Array as="points">
              <mxPoint x="907.5" y="870" />
              <mxPoint x="907.5" y="1100" />
            </Array>
          </mxGeometry>
        </mxCell>
        <mxCell id="D0T-OWsima516PI2QDGk-13" value="genap" style="shape=parallelogram;perimeter=parallelogramPerimeter;whiteSpace=wrap;html=1;fixedSize=1;" vertex="1" parent="WIyWlLk6GJQsqaUBKTNV-1">
          <mxGeometry x="687.5" y="840" width="190" height="60" as="geometry" />
        </mxCell>
      </root>
    </mxGraphModel>
  </diagram>
</mxfile>
